<svg xmlns="http://www.w3.org/2000/svg" viewBox="0 0 100 100" width="100" height="100">
  <path d="M 32 16 Q 24 22 24 32 Q 24 42 32 48 Q 28 48 24 45 Q 15 38 15 27 Q 15 16 24 9 Q 28 7 32 7 Z" fill="#5C6BC0" stroke="#3F51B5" stroke-width="1.5"/>
  <g fill="#FFF9C4">
    <circle cx="43" cy="18" r="1.5"/>
    <circle cx="50" cy="23" r="1.2"/>
  </g>
  <path d="M 25 58 Q 25 46 33 42 Q 33 36 41 36 Q 44 30 51 33 Q 59 33 63 40 Q 71 40 71 52 Q 71 60 63 60 Z" fill="#78909C" stroke="#607D8B" stroke-width="2"/>
  <g stroke="#42A5F5" stroke-width="2.5" stroke-linecap="round">
    <line x1="35" y1="65" x2="32" y2="78"/>
    <line x1="47" y1="65" x2="44" y2="78"/>
    <line x1="59" y1="65" x2="56" y2="78"/>
  </g>
</svg>