<svg viewBox="0 0 64 64" xmlns="http://www.w3.org/2000/svg">
  <defs>
    <linearGradient id="sun-grad4" x1="0%" y1="0%" x2="100%" y2="100%">
      <stop offset="0%" style="stop-color:#FFD600" />
      <stop offset="100%" style="stop-color:#FF8A00" />
    </linearGradient>
    <linearGradient id="cloud-grad10" x1="0%" y1="0%" x2="100%" y2="100%">
      <stop offset="0%" style="stop-color:#e0e8f0" />
      <stop offset="100%" style="stop-color:#c5d4e0" />
    </linearGradient>
  </defs>
  <g>
    <circle cx="22" cy="22" r="8" fill="url(#sun-grad4)" />
    <g stroke="url(#sun-grad4)" stroke-width="2.5" stroke-linecap="round">
      <line x1="22" y1="8" x2="22" y2="11" />
      <line x1="8" y1="22" x2="11" y2="22" />
      <line x1="33" y1="22" x2="36" y2="22" />
      <line x1="11.5" y1="11.5" x2="13.8" y2="13.8" />
      <line x1="30.2" y1="30.2" x2="32.5" y2="32.5" />
    </g>
  </g>
  <path d="M50,44a8,8,0,0,0-1.5-15.7,11,11,0,0,0-20,5.2,7,7,0,0,0,0,14h21.5a8,8,0,0,0,0-3.5Z" fill="url(#cloud-grad10)" />
  <path d="M50,44a8,8,0,0,0-1.5-15.7,11,11,0,0,0-20,5.2,7,7,0,0,0,0,14h21.5a8,8,0,0,0,0-3.5Z" fill="#fff" opacity="0.5" />
  <g stroke="#5ad1ff" stroke-width="3" stroke-linecap="round">
    <line x1="26" y1="48" x2="24" y2="54" />
    <line x1="34" y1="48" x2="32" y2="54" />
    <line x1="42" y1="48" x2="40" y2="54" />
  </g>
</svg>