<svg viewBox="0 0 64 64" xmlns="http://www.w3.org/2000/svg">
  <defs>
    <linearGradient id="moon-grad3" x1="0%" y1="0%" x2="100%" y2="100%">
      <stop offset="0%" style="stop-color:#7d5cff" />
      <stop offset="100%" style="stop-color:#5ad1ff" />
    </linearGradient>
    <linearGradient id="cloud-grad9" x1="0%" y1="0%" x2="100%" y2="100%">
      <stop offset="0%" style="stop-color:#6b7a8f" />
      <stop offset="100%" style="stop-color:#4a5568" />
    </linearGradient>
  </defs>
  <path d="M30,28a10,10,0,1,1,0-14,8,8,0,1,0,0,14Z" fill="url(#moon-grad3)" />
  <circle cx="34" cy="12" r="1.5" fill="#fff" opacity="0.7" />
  <path d="M50,44a8,8,0,0,0-1.5-15.7,11,11,0,0,0-20,5.2,7,7,0,0,0,0,14h21.5a8,8,0,0,0,0-3.5Z" fill="url(#cloud-grad9)" />
  <line x1="38" y1="48" x2="36" y2="54" stroke="#5ad1ff" stroke-width="3" stroke-linecap="round" />
  <path d="M30,48 L26,54 L29,54 L27,60 L33,52 L30,52 Z" fill="#FFD600" stroke="#FF8A00" stroke-width="1.5" />
</svg>