<svg xmlns="http://www.w3.org/2000/svg" viewBox="0 0 100 100" width="100" height="100">
  <path d="M 22 48 Q 22 36 30 32 Q 30 25 38 25 Q 42 18 50 21 Q 58 21 63 28 Q 71 28 71 40 Q 71 48 63 48 Z" fill="#78909C" stroke="#607D8B" stroke-width="2"/>
  <g stroke="#42A5F5" stroke-width="2.5" stroke-linecap="round">
    <line x1="30" y1="54" x2="27" y2="68"/>
    <line x1="54" y1="54" x2="51" y2="68"/>
  </g>
  <g fill="#E3F2FD" stroke="#BBDEFB" stroke-width="1.5">
    <g transform="translate(42, 60)">
      <line x1="0" y1="-4" x2="0" y2="4" stroke="#BBDEFB" stroke-width="1.5"/>
      <line x1="-3.5" y1="-2" x2="3.5" y2="2" stroke="#BBDEFB" stroke-width="1.5"/>
      <line x1="-3.5" y1="2" x2="3.5" y2="-2" stroke="#BBDEFB" stroke-width="1.5"/>
    </g>
    <g transform="translate(60, 62)">
      <line x1="0" y1="-4" x2="0" y2="4" stroke="#BBDEFB" stroke-width="1.5"/>
      <line x1="-3.5" y1="-2" x2="3.5" y2="2" stroke="#BBDEFB" stroke-width="1.5"/>
      <line x1="-3.5" y1="2" x2="3.5" y2="-2" stroke="#BBDEFB" stroke-width="1.5"/>
    </g>
  </g>
  <g stroke="#42A5F5" stroke-width="2.5" stroke-linecap="round">
    <line x1="36" y1="68" x2="33" y2="78"/>
    <line x1="48" y1="70" x2="45" y2="80"/>
  </g>
</svg>