<svg viewBox="0 0 64 64" xmlns="http://www.w3.org/2000/svg">
  <defs>
    <linearGradient id="cloud-grad" x1="0%" y1="0%" x2="100%" y2="100%">
      <stop offset="0%" style="stop-color:#e0e8f0" />
      <stop offset="100%" style="stop-color:#c5d4e0" />
    </linearGradient>
  </defs>
  <path d="M48,40a10,10,0,0,0-2-19.7,14,14,0,0,0-26,6.7,9,9,0,0,0,0,18h28a10,10,0,0,0,0-5Z" fill="url(#cloud-grad)" />
  <path d="M48,40a10,10,0,0,0-2-19.7,14,14,0,0,0-26,6.7,9,9,0,0,0,0,18h28a10,10,0,0,0,0-5Z" fill="#fff" opacity="0.5" />
</svg>