<svg viewBox="0 0 64 64" xmlns="http://www.w3.org/2000/svg">
  <defs>
    <linearGradient id="moon-grad2" x1="0%" y1="0%" x2="100%" y2="100%">
      <stop offset="0%" style="stop-color:#7d5cff" />
      <stop offset="100%" style="stop-color:#5ad1ff" />
    </linearGradient>
    <linearGradient id="cloud-grad3" x1="0%" y1="0%" x2="100%" y2="100%">
      <stop offset="0%" style="stop-color:#e0e8f0" />
      <stop offset="100%" style="stop-color:#c5d4e0" />
    </linearGradient>
  </defs>
  <!-- Księżyc -->
  <path d="M32,30a12,12,0,1,1,0-16,10,10,0,1,0,0,16Z" fill="url(#moon-grad2)" />
  <!-- Więcej gwiazdek -->
  <circle cx="36" cy="12" r="2" fill="#fff" />
  <circle cx="42" cy="18" r="1.5" fill="#fff" opacity="0.8" />
  <circle cx="30" cy="10" r="1.2" fill="#fff" opacity="0.7" />
  <circle cx="38" cy="8" r="1" fill="#fff" opacity="0.6" />
  <!-- Chmura -->
  <path d="M50,46a8,8,0,0,0-1.5-15.7,11,11,0,0,0-20,5.2,7,7,0,0,0,0,14h21.5a8,8,0,0,0,0-3.5Z" fill="url(#cloud-grad3)" />
  <path d="M50,46a8,8,0,0,0-1.5-15.7,11,11,0,0,0-20,5.2,7,7,0,0,0,0,14h21.5a8,8,0,0,0,0-3.5Z" fill="#fff" opacity="0.6" />
</svg>