<svg xmlns="http://www.w3.org/2000/svg" viewBox="0 0 100 100" width="100" height="100">
  <path d="M 35 18 Q 26 25 26 36 Q 26 47 35 54 Q 30 54 26 50 Q 16 42 16 30 Q 16 18 26 10 Q 30 8 35 8 Z" fill="#5C6BC0" stroke="#3F51B5" stroke-width="1.5"/>
  <g fill="#FFF9C4">
    <circle cx="48" cy="20" r="1.5"/>
    <circle cx="55" cy="26" r="1.2"/>
  </g>
  <path d="M 28 62 Q 28 48 38 44 Q 38 36 48 36 Q 52 28 60 32 Q 70 32 75 42 Q 85 42 85 56 Q 85 66 75 66 L 35 66 Q 28 66 28 62 Z" fill="#CFD8DC" stroke="#90A4AE" stroke-width="2"/>
</svg>