<svg viewBox="0 0 64 64" xmlns="http://www.w3.org/2000/svg">
  <defs>
    <linearGradient id="sun-grad2" x1="0%" y1="0%" x2="100%" y2="100%">
      <stop offset="0%" style="stop-color:#FFD600" />
      <stop offset="100%" style="stop-color:#FF8A00" />
    </linearGradient>
    <linearGradient id="cloud-grad2" x1="0%" y1="0%" x2="100%" y2="100%">
      <stop offset="0%" style="stop-color:#e0e8f0" />
      <stop offset="100%" style="stop-color:#c5d4e0" />
    </linearGradient>
  </defs>
  <!-- Słońce z pełnymi promieniami -->
  <g>
    <circle cx="24" cy="24" r="9" fill="url(#sun-grad2)" />
    <g stroke="url(#sun-grad2)" stroke-width="3" stroke-linecap="round">
      <!-- Główne 4 kierunki -->
      <line x1="24" y1="6" x2="24" y2="12" />
      <line x1="24" y1="36" x2="24" y2="42" />
      <line x1="6" y1="24" x2="12" y2="24" />
      <line x1="36" y1="24" x2="42" y2="24" />
      <!-- Przekątne -->
      <line x1="11" y1="11" x2="15.5" y2="15.5" />
      <line x1="32.5" y1="32.5" x2="37" y2="37" />
      <line x1="11" y1="37" x2="15.5" y2="32.5" />
      <line x1="32.5" y1="15.5" x2="37" y2="11" />
    </g>
  </g>
  <!-- Chmura -->
  <path d="M50,46a8,8,0,0,0-1.5-15.7,11,11,0,0,0-20,5.2,7,7,0,0,0,0,14h21.5a8,8,0,0,0,0-3.5Z" fill="url(#cloud-grad2)" />
  <path d="M50,46a8,8,0,0,0-1.5-15.7,11,11,0,0,0-20,5.2,7,7,0,0,0,0,14h21.5a8,8,0,0,0,0-3.5Z" fill="#fff" opacity="0.6" />
</svg>