<svg viewBox="0 0 64 64" xmlns="http://www.w3.org/2000/svg">
  <defs>
    <linearGradient id="cloud-grad4" x1="0%" y1="0%" x2="100%" y2="100%">
      <stop offset="0%" style="stop-color:#e0e8f0" />
      <stop offset="100%" style="stop-color:#c5d4e0" />
    </linearGradient>
  </defs>
  <path d="M48,36a10,10,0,0,0-2-19.7,14,14,0,0,0-26,6.7,9,9,0,0,0,0,18h28a10,10,0,0,0,0-5Z" fill="url(#cloud-grad4)" />
  <path d="M48,36a10,10,0,0,0-2-19.7,14,14,0,0,0-26,6.7,9,9,0,0,0,0,18h28a10,10,0,0,0,0-5Z" fill="#fff" opacity="0.5" />
  <g stroke="#5ad1ff" stroke-width="3.5" stroke-linecap="round">
    <line x1="22" y1="44" x2="20" y2="52" />
    <line x1="32" y1="44" x2="30" y2="52" />
    <line x1="42" y1="44" x2="40" y2="52" />
    <line x1="27" y1="48" x2="25" y2="56" />
    <line x1="37" y1="48" x2="35" y2="56" />
  </g>
</svg>