<svg xmlns="http://www.w3.org/2000/svg" viewBox="0 0 100 100" width="100" height="100">
  <path d="M 28 14 Q 21 19 21 28 Q 21 37 28 42 Q 24 42 21 39 Q 13 33 13 23 Q 13 13 21 7 Q 24 5 28 5 Z" fill="#5C6BC0" stroke="#3F51B5" stroke-width="1.5"/>
  <g fill="#FFF9C4">
    <circle cx="38" cy="16" r="1.3"/>
    <circle cx="44" cy="20" r="1"/>
  </g>
  <path d="M 22 42 Q 22 30 30 26 Q 30 19 38 19 Q 42 12 50 15 Q 58 15 63 22 Q 71 22 71 34 Q 71 42 63 42 Z" fill="#546E7A" stroke="#37474F" stroke-width="2"/>
  <g stroke="#42A5F5" stroke-width="2.5" stroke-linecap="round">
    <line x1="30" y1="48" x2="27" y2="60"/>
    <line x1="60" y1="48" x2="57" y2="60"/>
  </g>
  <path d="M 46 50 L 42 62 L 47 62 L 44 76 L 54 60 L 49 60 L 52 50 Z" fill="#FDD835" stroke="#F9A825" stroke-width="1.5" stroke-linejoin="round"/>
</svg>