<svg xmlns="http://www.w3.org/2000/svg" viewBox="0 0 32 32">
  <defs>
    <filter id="blur">
      <feGaussianBlur in="SourceGraphic" stdDeviation="0.8"/>
    </filter>
  </defs>
  
  <!-- Glass circle (tight) -->
  <circle cx="16" cy="16" r="15" 
          fill="rgba(255, 255, 255, 0.08)" 
          stroke="rgba(255, 255, 255, 0.2)" 
          stroke-width="0.8"
          filter="url(#blur)"/>
  
  <!-- GitHub icon (scaled down, centered) -->
  <g transform="translate(6, 6)">
    <path fill="#ffffff" opacity="0.95"
          d="M10 0C4.48 0 0 4.48 0 10c0 4.42 2.87 8.17 6.84 9.5.5.09.68-.22.68-.48v-1.7c-2.78.6-3.37-1.34-3.37-1.34-.45-1.15-1.11-1.46-1.11-1.46-.91-.62.07-.61.07-.61.99.07 1.52 1.02 1.52 1.02.89 1.53 2.34 1.09 2.91.83.09-.65.35-1.09.63-1.34-2.22-.25-4.56-1.11-4.56-4.94 0-1.09.39-1.98 1.03-2.68-.1-.25-.45-1.27.1-2.64 0 0 .84-.27 2.75 1.02.8-.22 1.65-.33 2.5-.33.85 0 1.7.11 2.5.33 1.91-1.29 2.75-1.02 2.75-1.02.55 1.37.2 2.39.1 2.64.64.7.03 1.59 1.03 2.68 0 3.83-2.34 4.69-4.56 4.94.36.31.68.92.68 1.85v2.75c0 .27.18.58.69.48C17.14 18.16 20 14.42 20 10c0-5.52-4.48-10-10-10z"/>
  </g>
</svg>