<svg xmlns="http://www.w3.org/2000/svg" viewBox="0 0 100 100" width="100" height="100">
  <path d="M 22 48 Q 22 36 30 32 Q 30 25 38 25 Q 42 18 50 21 Q 58 21 63 28 Q 71 28 71 40 Q 71 48 63 48 Z" fill="#B0BEC5" stroke="#90A4AE" stroke-width="2"/>
  <g fill="#E3F2FD" stroke="#BBDEFB" stroke-width="1.5">
    <g transform="translate(30, 58)">
      <line x1="0" y1="-5" x2="0" y2="5" stroke="#BBDEFB" stroke-width="1.5"/>
      <line x1="-4.3" y1="-2.5" x2="4.3" y2="2.5" stroke="#BBDEFB" stroke-width="1.5"/>
      <line x1="-4.3" y1="2.5" x2="4.3" y2="-2.5" stroke="#BBDEFB" stroke-width="1.5"/>
    </g>
    <g transform="translate(46, 62)">
      <line x1="0" y1="-5" x2="0" y2="5" stroke="#BBDEFB" stroke-width="1.5"/>
      <line x1="-4.3" y1="-2.5" x2="4.3" y2="2.5" stroke="#BBDEFB" stroke-width="1.5"/>
      <line x1="-4.3" y1="2.5" x2="4.3" y2="-2.5" stroke="#BBDEFB" stroke-width="1.5"/>
    </g>
    <g transform="translate(62, 58)">
      <line x1="0" y1="-5" x2="0" y2="5" stroke="#BBDEFB" stroke-width="1.5"/>
      <line x1="-4.3" y1="-2.5" x2="4.3" y2="2.5" stroke="#BBDEFB" stroke-width="1.5"/>
      <line x1="-4.3" y1="2.5" x2="4.3" y2="-2.5" stroke="#BBDEFB" stroke-width="1.5"/>
    </g>
    <g transform="translate(38, 70)">
      <line x1="0" y1="-5" x2="0" y2="5" stroke="#BBDEFB" stroke-width="1.5"/>
      <line x1="-4.3" y1="-2.5" x2="4.3" y2="2.5" stroke="#BBDEFB" stroke-width="1.5"/>
      <line x1="-4.3" y1="2.5" x2="4.3" y2="-2.5" stroke="#BBDEFB" stroke-width="1.5"/>
    </g>
    <g transform="translate(54, 72)">
      <line x1="0" y1="-5" x2="0" y2="5" stroke="#BBDEFB" stroke-width="1.5"/>
      <line x1="-4.3" y1="-2.5" x2="4.3" y2="2.5" stroke="#BBDEFB" stroke-width="1.5"/>
      <line x1="-4.3" y1="2.5" x2="4.3" y2="-2.5" stroke="#BBDEFB" stroke-width="1.5"/>
    </g>
  </g>
</svg>