<svg xmlns="http://www.w3.org/2000/svg" viewBox="0 0 100 100" width="100" height="100">
  <circle cx="32" cy="24" r="12" fill="#FDB813"/>
  <g stroke="#FDB813" stroke-width="2" stroke-linecap="round">
    <line x1="32" y1="8" x2="32" y2="12"/>
    <line x1="14" y1="24" x2="18" y2="24"/>
    <line x1="18" y1="12" x2="22" y2="16"/>
  </g>
  <path d="M 22 42 Q 22 30 30 26 Q 30 19 38 19 Q 42 12 50 15 Q 58 15 63 22 Q 71 22 71 34 Q 71 42 63 42 Z" fill="#546E7A" stroke="#37474F" stroke-width="2"/>
  <g stroke="#42A5F5" stroke-width="2.5" stroke-linecap="round">
    <line x1="30" y1="48" x2="27" y2="60"/>
    <line x1="60" y1="48" x2="57" y2="60"/>
  </g>
  <path d="M 46 50 L 42 62 L 47 62 L 44 76 L 54 60 L 49 60 L 52 50 Z" fill="#FDD835" stroke="#F9A825" stroke-width="1.5" stroke-linejoin="round"/>
</svg>