<svg viewBox="0 0 64 64" xmlns="http://www.w3.org/2000/svg">
  <defs>
    <linearGradient id="cloud-grad6" x1="0%" y1="0%" x2="100%" y2="100%">
      <stop offset="0%" style="stop-color:#e0e8f0" />
      <stop offset="100%" style="stop-color:#c5d4e0" />
    </linearGradient>
  </defs>
  <path d="M48,36a10,10,0,0,0-2-19.7,14,14,0,0,0-26,6.7,9,9,0,0,0,0,18h28a10,10,0,0,0,0-5Z" fill="url(#cloud-grad6)" />
  <path d="M48,36a10,10,0,0,0-2-19.7,14,14,0,0,0-26,6.7,9,9,0,0,0,0,18h28a10,10,0,0,0,0-5Z" fill="#fff" opacity="0.5" />
  <g stroke="#5ad1ff" stroke-width="3" stroke-linecap="round">
    <line x1="22" y1="44" x2="20" y2="50" />
    <line x1="42" y1="44" x2="40" y2="50" />
  </g>
  <g fill="#fff">
    <circle cx="32" cy="50" r="2.5" />
    <circle cx="27" cy="54" r="2" />
    <circle cx="37" cy="54" r="2" />
  </g>
</svg>