<svg viewBox="0 0 64 64" xmlns="http://www.w3.org/2000/svg">
  <defs>
    <linearGradient id="cloud-grad5" x1="0%" y1="0%" x2="100%" y2="100%">
      <stop offset="0%" style="stop-color:#e0e8f0" />
      <stop offset="100%" style="stop-color:#c5d4e0" />
    </linearGradient>
  </defs>
  <path d="M48,36a10,10,0,0,0-2-19.7,14,14,0,0,0-26,6.7,9,9,0,0,0,0,18h28a10,10,0,0,0,0-5Z" fill="url(#cloud-grad5)" />
  <path d="M48,36a10,10,0,0,0-2-19.7,14,14,0,0,0-26,6.7,9,9,0,0,0,0,18h28a10,10,0,0,0,0-5Z" fill="#fff" opacity="0.5" />
  <g fill="#fff">
    <circle cx="22" cy="48" r="3" />
    <circle cx="32" cy="52" r="3" />
    <circle cx="42" cy="48" r="3" />
    <circle cx="27" cy="54" r="2.5" />
    <circle cx="37" cy="46" r="2.5" />
  </g>
</svg>